<svg width="161" height="56" viewBox="0 0 161 56" fill="none" xmlns="http://www.w3.org/2000/svg">
<rect x="0.486215" y="0.486215" width="159.806" height="54.7802" rx="8.5898" stroke="black" stroke-width="0.97243"/>
<path d="M34.881 23.1849C34.7078 23.3177 31.6495 25.0197 31.6495 28.8041C31.6495 33.1815 35.541 34.7301 35.6575 34.7684C35.6396 34.8628 35.0393 36.8893 33.6057 38.9541C32.3274 40.7711 30.9924 42.5851 28.9616 42.5851C26.9307 42.5851 26.408 41.42 24.0636 41.42C21.7789 41.42 20.9665 42.6235 19.1089 42.6235C17.2512 42.6235 15.955 40.9422 14.4647 38.8774C12.7385 36.4527 11.3438 32.6859 11.3438 29.1109C11.3438 23.3767 15.1188 20.3355 18.8341 20.3355C20.8082 20.3355 22.4538 21.6157 23.6933 21.6157C24.8729 21.6157 26.7127 20.2588 28.9586 20.2588C29.8098 20.2588 32.868 20.3355 34.881 23.1849ZM27.8924 17.8312C28.8212 16.7428 29.4783 15.2325 29.4783 13.7223C29.4783 13.5129 29.4603 13.3005 29.4215 13.1294C27.9103 13.1854 26.1124 14.1234 25.0283 15.3653C24.1771 16.321 23.3826 17.8312 23.3826 19.3621C23.3826 19.5922 23.4215 19.8223 23.4394 19.896C23.535 19.9137 23.6903 19.9344 23.8456 19.9344C25.2015 19.9344 26.9068 19.0377 27.8924 17.8312Z" fill="black"/>
<path d="M44.7297 17.1035V9.08452H47.9747C48.7447 9.08452 49.3974 9.25318 49.9327 9.59052C50.4754 9.92052 50.8897 10.3862 51.1757 10.9875C51.4617 11.5888 51.6047 12.2928 51.6047 13.0995C51.6047 13.7008 51.5241 14.2472 51.3627 14.7385C51.2014 15.2298 50.9631 15.6515 50.6477 16.0035C50.3397 16.3555 49.9621 16.6268 49.5147 16.8175C49.0674 17.0082 48.5541 17.1035 47.9747 17.1035H44.7297ZM45.9287 16.0695H47.7987C48.1874 16.0695 48.5394 16.0108 48.8547 15.8935C49.1701 15.7688 49.4414 15.5855 49.6687 15.3435C49.8961 15.0942 50.0684 14.7825 50.1857 14.4085C50.3104 14.0272 50.3727 13.5835 50.3727 13.0775C50.3727 12.3955 50.2664 11.8382 50.0537 11.4055C49.8411 10.9655 49.5404 10.6428 49.1517 10.4375C48.7631 10.2248 48.3121 10.1185 47.7987 10.1185H45.9287V16.0695ZM55.3641 17.2025C54.9388 17.2025 54.5501 17.1328 54.1981 16.9935C53.8535 16.8542 53.5565 16.6525 53.3071 16.3885C53.0578 16.1245 52.8635 15.8092 52.7241 15.4425C52.5848 15.0758 52.5151 14.6652 52.5151 14.2105C52.5151 13.6092 52.6288 13.0848 52.8561 12.6375C53.0908 12.1828 53.4208 11.8308 53.8461 11.5815C54.2788 11.3248 54.7848 11.1965 55.3641 11.1965C55.7895 11.1965 56.1745 11.2662 56.5191 11.4055C56.8711 11.5375 57.1718 11.7355 57.4211 11.9995C57.6705 12.2635 57.8611 12.5825 57.9931 12.9565C58.1325 13.3232 58.2021 13.7375 58.2021 14.1995C58.2021 14.7935 58.0885 15.3178 57.8611 15.7725C57.6338 16.2198 57.3075 16.5718 56.8821 16.8285C56.4568 17.0778 55.9508 17.2025 55.3641 17.2025ZM55.3641 16.2565C55.7015 16.2565 55.9948 16.1795 56.2441 16.0255C56.5008 15.8642 56.6988 15.6295 56.8381 15.3215C56.9775 15.0135 57.0471 14.6395 57.0471 14.1995C57.0471 13.8695 57.0068 13.5798 56.9261 13.3305C56.8528 13.0738 56.7428 12.8575 56.5961 12.6815C56.4495 12.4982 56.2735 12.3625 56.0681 12.2745C55.8628 12.1792 55.6281 12.1315 55.3641 12.1315C55.0268 12.1315 54.7298 12.2122 54.4731 12.3735C54.2238 12.5348 54.0258 12.7695 53.8791 13.0775C53.7398 13.3782 53.6701 13.7558 53.6701 14.2105C53.6701 14.5332 53.7068 14.8228 53.7801 15.0795C53.8608 15.3288 53.9745 15.5415 54.1211 15.7175C54.2751 15.8935 54.4548 16.0292 54.6601 16.1245C54.8728 16.2125 55.1075 16.2565 55.3641 16.2565ZM60.0403 17.1035L58.5553 11.2845H59.7213L60.8653 15.9705H60.9203L61.9983 11.2845H63.2523L64.3633 15.9815H64.3963L65.5403 11.2845H66.6513L65.1663 17.1035H63.6813L62.6033 12.7255H62.5593L61.5143 17.1035H60.0403ZM67.5098 17.1035V11.2845H68.5878L68.6318 12.4395H68.6978C68.8664 12.0288 69.1304 11.7208 69.4898 11.5155C69.8491 11.3028 70.2414 11.1965 70.6668 11.1965C70.9674 11.1965 71.2424 11.2405 71.4918 11.3285C71.7484 11.4165 71.9684 11.5595 72.1518 11.7575C72.3424 11.9482 72.4891 12.2012 72.5918 12.5165C72.6944 12.8245 72.7458 13.2022 72.7458 13.6495V17.1035H71.6128V13.8805C71.6128 13.4845 71.5651 13.1582 71.4698 12.9015C71.3744 12.6375 71.2278 12.4432 71.0298 12.3185C70.8318 12.1938 70.5751 12.1315 70.2598 12.1315C69.9298 12.1315 69.6401 12.2122 69.3908 12.3735C69.1488 12.5348 68.9618 12.7512 68.8298 13.0225C68.6978 13.2865 68.6318 13.5872 68.6318 13.9245V17.1035H67.5098ZM74.2774 17.1035V9.08452H75.4104V17.1035H74.2774ZM79.4374 17.2025C79.012 17.2025 78.6234 17.1328 78.2714 16.9935C77.9267 16.8542 77.6297 16.6525 77.3804 16.3885C77.131 16.1245 76.9367 15.8092 76.7974 15.4425C76.658 15.0758 76.5884 14.6652 76.5884 14.2105C76.5884 13.6092 76.702 13.0848 76.9294 12.6375C77.164 12.1828 77.494 11.8308 77.9194 11.5815C78.352 11.3248 78.858 11.1965 79.4374 11.1965C79.8627 11.1965 80.2477 11.2662 80.5924 11.4055C80.9444 11.5375 81.245 11.7355 81.4944 11.9995C81.7437 12.2635 81.9344 12.5825 82.0664 12.9565C82.2057 13.3232 82.2754 13.7375 82.2754 14.1995C82.2754 14.7935 82.1617 15.3178 81.9344 15.7725C81.707 16.2198 81.3807 16.5718 80.9554 16.8285C80.53 17.0778 80.024 17.2025 79.4374 17.2025ZM79.4374 16.2565C79.7747 16.2565 80.068 16.1795 80.3174 16.0255C80.574 15.8642 80.772 15.6295 80.9114 15.3215C81.0507 15.0135 81.1204 14.6395 81.1204 14.1995C81.1204 13.8695 81.08 13.5798 80.9994 13.3305C80.926 13.0738 80.816 12.8575 80.6694 12.6815C80.5227 12.4982 80.3467 12.3625 80.1414 12.2745C79.936 12.1792 79.7014 12.1315 79.4374 12.1315C79.1 12.1315 78.803 12.2122 78.5464 12.3735C78.297 12.5348 78.099 12.7695 77.9524 13.0775C77.813 13.3782 77.7434 13.7558 77.7434 14.2105C77.7434 14.5332 77.78 14.8228 77.8534 15.0795C77.934 15.3288 78.0477 15.5415 78.1944 15.7175C78.3484 15.8935 78.528 16.0292 78.7334 16.1245C78.946 16.2125 79.1807 16.2565 79.4374 16.2565ZM85.5493 17.2025C85.1973 17.2025 84.8747 17.1365 84.5813 17.0045C84.2953 16.8725 84.046 16.6818 83.8333 16.4325C83.6207 16.1758 83.4557 15.8605 83.3383 15.4865C83.2283 15.1125 83.1733 14.6798 83.1733 14.1885C83.1733 13.5432 83.2723 12.9968 83.4703 12.5495C83.6757 12.1022 83.9543 11.7648 84.3063 11.5375C84.6657 11.3028 85.08 11.1855 85.5493 11.1855C85.872 11.1855 86.1653 11.2368 86.4293 11.3395C86.7007 11.4422 86.928 11.5888 87.1113 11.7795C87.302 11.9628 87.4413 12.1792 87.5293 12.4285H87.5953L87.6393 11.2845H88.7283V17.1035H87.5953V15.9485H87.5293C87.39 16.3225 87.148 16.6268 86.8033 16.8615C86.4587 17.0888 86.0407 17.2025 85.5493 17.2025ZM85.9453 16.2675C86.3047 16.2675 86.6053 16.1832 86.8473 16.0145C87.0893 15.8458 87.2727 15.6295 87.3973 15.3655C87.522 15.1015 87.5843 14.8192 87.5843 14.5185V13.8585C87.5843 13.5578 87.522 13.2755 87.3973 13.0115C87.2727 12.7475 87.0893 12.5312 86.8473 12.3625C86.6053 12.1938 86.3047 12.1095 85.9453 12.1095C85.6227 12.1095 85.3403 12.1902 85.0983 12.3515C84.8563 12.5055 84.6693 12.7365 84.5373 13.0445C84.4053 13.3452 84.3393 13.7265 84.3393 14.1885C84.3393 14.6432 84.4053 15.0245 84.5373 15.3325C84.6693 15.6405 84.8563 15.8752 85.0983 16.0365C85.3403 16.1905 85.6227 16.2675 85.9453 16.2675ZM92.2525 17.2025C91.9005 17.2025 91.5778 17.1365 91.2845 17.0045C90.9985 16.8725 90.7491 16.6818 90.5365 16.4325C90.3238 16.1758 90.1588 15.8605 90.0415 15.4865C89.9315 15.1125 89.8765 14.6798 89.8765 14.1885C89.8765 13.5432 89.9755 12.9968 90.1735 12.5495C90.3788 12.1022 90.6575 11.7648 91.0095 11.5375C91.3688 11.3028 91.7831 11.1855 92.2525 11.1855C92.5751 11.1855 92.8685 11.2368 93.1325 11.3395C93.4038 11.4422 93.6311 11.5888 93.8145 11.7795C94.0051 11.9628 94.1445 12.1792 94.2325 12.4285H94.2985V9.08452H95.4315V17.1035H94.3425L94.2985 15.9485H94.2325C94.0931 16.3225 93.8511 16.6268 93.5065 16.8615C93.1618 17.0888 92.7438 17.2025 92.2525 17.2025ZM92.6485 16.2675C93.0078 16.2675 93.3085 16.1832 93.5505 16.0145C93.7925 15.8458 93.9758 15.6295 94.1005 15.3655C94.2251 15.1015 94.2875 14.8192 94.2875 14.5185V13.8585C94.2875 13.6385 94.2508 13.4258 94.1775 13.2205C94.1115 13.0078 94.0088 12.8208 93.8695 12.6595C93.7375 12.4908 93.5688 12.3588 93.3635 12.2635C93.1581 12.1608 92.9198 12.1095 92.6485 12.1095C92.3258 12.1095 92.0435 12.1902 91.8015 12.3515C91.5595 12.5055 91.3725 12.7365 91.2405 13.0445C91.1085 13.3452 91.0425 13.7265 91.0425 14.1885C91.0425 14.6432 91.1085 15.0245 91.2405 15.3325C91.3725 15.6405 91.5595 15.8752 91.8015 16.0365C92.0435 16.1905 92.3258 16.2675 92.6485 16.2675ZM101.932 17.2025C101.506 17.2025 101.118 17.1328 100.766 16.9935C100.421 16.8542 100.124 16.6525 99.8745 16.3885C99.6252 16.1245 99.4309 15.8092 99.2915 15.4425C99.1522 15.0758 99.0825 14.6652 99.0825 14.2105C99.0825 13.6092 99.1962 13.0848 99.4235 12.6375C99.6582 12.1828 99.9882 11.8308 100.414 11.5815C100.846 11.3248 101.352 11.1965 101.932 11.1965C102.357 11.1965 102.742 11.2662 103.087 11.4055C103.439 11.5375 103.739 11.7355 103.989 11.9995C104.238 12.2635 104.429 12.5825 104.561 12.9565C104.7 13.3232 104.77 13.7375 104.77 14.1995C104.77 14.7935 104.656 15.3178 104.429 15.7725C104.201 16.2198 103.875 16.5718 103.45 16.8285C103.024 17.0778 102.518 17.2025 101.932 17.2025ZM101.932 16.2565C102.269 16.2565 102.562 16.1795 102.812 16.0255C103.068 15.8642 103.266 15.6295 103.406 15.3215C103.545 15.0135 103.615 14.6395 103.615 14.1995C103.615 13.8695 103.574 13.5798 103.494 13.3305C103.42 13.0738 103.31 12.8575 103.164 12.6815C103.017 12.4982 102.841 12.3625 102.636 12.2745C102.43 12.1792 102.196 12.1315 101.932 12.1315C101.594 12.1315 101.297 12.2122 101.041 12.3735C100.791 12.5348 100.593 12.7695 100.447 13.0775C100.307 13.3782 100.238 13.7558 100.238 14.2105C100.238 14.5332 100.274 14.8228 100.348 15.0795C100.428 15.3288 100.542 15.5415 100.689 15.7175C100.843 15.8935 101.022 16.0292 101.228 16.1245C101.44 16.2125 101.675 16.2565 101.932 16.2565ZM105.956 17.1035V11.2845H107.034L107.078 12.4395H107.144C107.313 12.0288 107.577 11.7208 107.936 11.5155C108.295 11.3028 108.688 11.1965 109.113 11.1965C109.414 11.1965 109.689 11.2405 109.938 11.3285C110.195 11.4165 110.415 11.5595 110.598 11.7575C110.789 11.9482 110.935 12.2012 111.038 12.5165C111.141 12.8245 111.192 13.2022 111.192 13.6495V17.1035H110.059V13.8805C110.059 13.4845 110.011 13.1582 109.916 12.9015C109.821 12.6375 109.674 12.4432 109.476 12.3185C109.278 12.1938 109.021 12.1315 108.706 12.1315C108.376 12.1315 108.086 12.2122 107.837 12.3735C107.595 12.5348 107.408 12.7512 107.276 13.0225C107.144 13.2865 107.078 13.5872 107.078 13.9245V17.1035H105.956ZM116.845 17.1035C116.522 17.1035 116.269 17.0595 116.086 16.9715C115.902 16.8762 115.774 16.7368 115.701 16.5535C115.627 16.3702 115.591 16.1502 115.591 15.8935V12.2085H114.491V11.2845H115.591V9.60152L116.724 9.46952V11.2845H118.011V12.2085H116.724V15.6845C116.724 15.8825 116.76 16.0145 116.834 16.0805C116.907 16.1392 117.035 16.1685 117.219 16.1685H118.011V17.1035H116.845ZM119.137 17.1035V9.08452H120.259V12.4395H120.325C120.493 12.0288 120.757 11.7208 121.117 11.5155C121.476 11.3028 121.868 11.1965 122.294 11.1965C122.594 11.1965 122.869 11.2405 123.119 11.3285C123.375 11.4165 123.595 11.5595 123.779 11.7575C123.969 11.9482 124.116 12.2012 124.219 12.5165C124.321 12.8245 124.373 13.2022 124.373 13.6495V17.1035H123.24V13.8805C123.24 13.4845 123.192 13.1582 123.097 12.9015C123.001 12.6375 122.855 12.4432 122.657 12.3185C122.459 12.1938 122.202 12.1315 121.887 12.1315C121.557 12.1315 121.267 12.2122 121.018 12.3735C120.776 12.5348 120.589 12.7512 120.457 13.0225C120.325 13.2865 120.259 13.5872 120.259 13.9245V17.1035H119.137ZM128.324 17.2025C127.745 17.2025 127.243 17.0815 126.817 16.8395C126.399 16.5902 126.077 16.2418 125.849 15.7945C125.622 15.3398 125.508 14.8155 125.508 14.2215C125.508 13.6055 125.622 13.0702 125.849 12.6155C126.077 12.1608 126.396 11.8125 126.806 11.5705C127.224 11.3212 127.716 11.1965 128.28 11.1965C128.918 11.1965 129.443 11.3395 129.853 11.6255C130.271 11.9042 130.572 12.2892 130.755 12.7805C130.939 13.2645 131.001 13.8108 130.942 14.4195H126.63C126.638 14.8155 126.711 15.1565 126.85 15.4425C126.99 15.7212 127.184 15.9338 127.433 16.0805C127.69 16.2272 127.987 16.3005 128.324 16.3005C128.713 16.3005 129.043 16.2125 129.314 16.0365C129.586 15.8532 129.758 15.6112 129.831 15.3105H130.909C130.858 15.6918 130.715 16.0255 130.48 16.3115C130.246 16.5902 129.941 16.8102 129.567 16.9715C129.201 17.1255 128.786 17.2025 128.324 17.2025ZM126.641 13.7815L126.531 13.6165H129.941L129.831 13.8035C129.846 13.4002 129.784 13.0738 129.644 12.8245C129.512 12.5678 129.325 12.3808 129.083 12.2635C128.849 12.1462 128.577 12.0875 128.269 12.0875C127.947 12.0875 127.664 12.1572 127.422 12.2965C127.18 12.4285 126.993 12.6228 126.861 12.8795C126.729 13.1362 126.656 13.4368 126.641 13.7815Z" fill="black"/>
<path d="M43.8337 42.1519L50.0497 24.6559H53.7217L59.9377 42.1519H57.2017L55.7617 38.0719H48.0097L46.5697 42.1519H43.8337ZM48.6337 36.0319H55.1137L53.1937 30.6319L51.9697 27.0559H51.8257L50.6017 30.6319L48.6337 36.0319ZM61.2285 46.1599V29.4559H63.6045L63.7005 31.9519H63.8445C64.1485 31.1359 64.6765 30.4799 65.4285 29.9839C66.1965 29.4879 67.1085 29.2399 68.1645 29.2399C68.9325 29.2399 69.6285 29.3839 70.2525 29.6719C70.8925 29.9599 71.4445 30.3839 71.9085 30.9439C72.3725 31.5039 72.7245 32.1919 72.9645 33.0079C73.2205 33.8239 73.3485 34.7599 73.3485 35.8159C73.3485 37.2239 73.1325 38.4159 72.7005 39.3919C72.2685 40.3679 71.6605 41.1119 70.8765 41.6239C70.1085 42.1199 69.2045 42.3679 68.1645 42.3679C67.4765 42.3679 66.8365 42.2559 66.2445 42.0319C65.6685 41.8079 65.1725 41.4959 64.7565 41.0959C64.3565 40.6799 64.0525 40.1999 63.8445 39.6559H63.7005V46.1599H61.2285ZM67.3005 40.3279C68.0045 40.3279 68.6205 40.1599 69.1485 39.8239C69.6765 39.4879 70.0845 38.9839 70.3725 38.3119C70.6765 37.6399 70.8285 36.8079 70.8285 35.8159C70.8285 34.8079 70.6765 33.9759 70.3725 33.3199C70.0845 32.6479 69.6765 32.1439 69.1485 31.8079C68.6205 31.4559 68.0045 31.2799 67.3005 31.2799C66.5325 31.2799 65.8765 31.4639 65.3325 31.8319C64.8045 32.1839 64.4045 32.6559 64.1325 33.2479C63.8605 33.8239 63.7245 34.4399 63.7245 35.0959V36.5119C63.7245 37.0079 63.7965 37.4879 63.9405 37.9519C64.1005 38.3999 64.3325 38.8079 64.6365 39.1759C64.9405 39.5279 65.3165 39.8079 65.7645 40.0159C66.2125 40.2239 66.7245 40.3279 67.3005 40.3279ZM75.4907 46.1599V29.4559H77.8667L77.9627 31.9519H78.1067C78.4107 31.1359 78.9387 30.4799 79.6907 29.9839C80.4587 29.4879 81.3707 29.2399 82.4267 29.2399C83.1947 29.2399 83.8907 29.3839 84.5147 29.6719C85.1547 29.9599 85.7067 30.3839 86.1707 30.9439C86.6347 31.5039 86.9867 32.1919 87.2267 33.0079C87.4827 33.8239 87.6107 34.7599 87.6107 35.8159C87.6107 37.2239 87.3947 38.4159 86.9627 39.3919C86.5307 40.3679 85.9227 41.1119 85.1387 41.6239C84.3707 42.1199 83.4667 42.3679 82.4267 42.3679C81.7387 42.3679 81.0987 42.2559 80.5067 42.0319C79.9307 41.8079 79.4347 41.4959 79.0187 41.0959C78.6187 40.6799 78.3147 40.1999 78.1067 39.6559H77.9627V46.1599H75.4907ZM81.5627 40.3279C82.2667 40.3279 82.8827 40.1599 83.4107 39.8239C83.9387 39.4879 84.3467 38.9839 84.6347 38.3119C84.9387 37.6399 85.0907 36.8079 85.0907 35.8159C85.0907 34.8079 84.9387 33.9759 84.6347 33.3199C84.3467 32.6479 83.9387 32.1439 83.4107 31.8079C82.8827 31.4559 82.2667 31.2799 81.5627 31.2799C80.7947 31.2799 80.1387 31.4639 79.5947 31.8319C79.0667 32.1839 78.6667 32.6559 78.3947 33.2479C78.1227 33.8239 77.9867 34.4399 77.9867 35.0959V36.5119C77.9867 37.0079 78.0587 37.4879 78.2027 37.9519C78.3627 38.3999 78.5947 38.8079 78.8987 39.1759C79.2027 39.5279 79.5787 39.8079 80.0267 40.0159C80.4747 40.2239 80.9867 40.3279 81.5627 40.3279ZM100.88 42.3679C99.328 42.3679 98.04 42.1279 97.016 41.6479C95.992 41.1679 95.224 40.5039 94.712 39.6559C94.2 38.7919 93.936 37.7999 93.92 36.6799H96.608C96.624 37.4159 96.784 38.0639 97.088 38.6239C97.408 39.1679 97.88 39.5839 98.504 39.8719C99.128 40.1599 99.936 40.3039 100.928 40.3039C102.16 40.3039 103.144 40.0799 103.88 39.6319C104.632 39.1839 105.008 38.4959 105.008 37.5679C105.008 37.0399 104.928 36.5999 104.768 36.2479C104.608 35.8959 104.344 35.6079 103.976 35.3839C103.624 35.1439 103.152 34.9439 102.56 34.7839C101.968 34.6239 101.248 34.4719 100.4 34.3279C99.392 34.1519 98.504 33.9439 97.736 33.7039C96.984 33.4479 96.352 33.1359 95.84 32.7679C95.344 32.3839 94.968 31.9199 94.712 31.3759C94.456 30.8319 94.328 30.1919 94.328 29.4559C94.328 28.4319 94.584 27.5439 95.096 26.7919C95.608 26.0399 96.344 25.4639 97.304 25.0639C98.264 24.6639 99.416 24.4639 100.76 24.4639C102.104 24.4639 103.248 24.6799 104.192 25.1119C105.136 25.5279 105.864 26.1199 106.376 26.8879C106.888 27.6399 107.152 28.5359 107.168 29.5759H104.504C104.488 28.8719 104.312 28.2959 103.976 27.8479C103.656 27.3839 103.208 27.0399 102.632 26.8159C102.072 26.5919 101.416 26.4799 100.664 26.4799C99.896 26.4799 99.24 26.5919 98.696 26.8159C98.168 27.0239 97.76 27.3279 97.472 27.7279C97.184 28.1119 97.04 28.5679 97.04 29.0959C97.04 29.7359 97.192 30.2319 97.496 30.5839C97.816 30.9359 98.32 31.2159 99.008 31.4239C99.696 31.6159 100.6 31.8159 101.72 32.0239C102.504 32.1359 103.248 32.2959 103.952 32.5039C104.672 32.7119 105.312 32.9999 105.872 33.3679C106.448 33.7359 106.896 34.2399 107.216 34.8799C107.552 35.5039 107.72 36.3199 107.72 37.3279C107.72 38.3199 107.456 39.1999 106.928 39.9679C106.416 40.7199 105.648 41.3119 104.624 41.7439C103.616 42.1599 102.368 42.3679 100.88 42.3679ZM113.651 42.1519C112.947 42.1519 112.395 42.0559 111.995 41.8639C111.595 41.6559 111.315 41.3519 111.155 40.9519C110.995 40.5519 110.915 40.0719 110.915 39.5119V31.4719H108.515V29.4559H110.915V25.7839L113.387 25.4959V29.4559H116.195V31.4719H113.387V39.0559C113.387 39.4879 113.467 39.7759 113.627 39.9199C113.787 40.0479 114.067 40.1119 114.467 40.1119H116.195V42.1519H113.651ZM123.173 42.3679C122.245 42.3679 121.397 42.2159 120.629 41.9119C119.877 41.6079 119.229 41.1679 118.685 40.5919C118.141 40.0159 117.717 39.3279 117.413 38.5279C117.109 37.7279 116.957 36.8319 116.957 35.8399C116.957 34.5279 117.205 33.3839 117.701 32.4079C118.213 31.4159 118.933 30.6479 119.861 30.1039C120.805 29.5439 121.909 29.2639 123.173 29.2639C124.101 29.2639 124.941 29.4159 125.693 29.7199C126.461 30.0079 127.117 30.4399 127.661 31.0159C128.205 31.5919 128.621 32.2879 128.909 33.1039C129.213 33.9039 129.365 34.8079 129.365 35.8159C129.365 37.1119 129.117 38.2559 128.621 39.2479C128.125 40.2239 127.413 40.9919 126.485 41.5519C125.557 42.0959 124.453 42.3679 123.173 42.3679ZM123.173 40.3039C123.909 40.3039 124.549 40.1359 125.093 39.7999C125.653 39.4479 126.085 38.9359 126.389 38.2639C126.693 37.5919 126.845 36.7759 126.845 35.8159C126.845 35.0959 126.757 34.4639 126.581 33.9199C126.421 33.3599 126.181 32.8879 125.861 32.5039C125.541 32.1039 125.157 31.8079 124.709 31.6159C124.261 31.4079 123.749 31.3039 123.173 31.3039C122.437 31.3039 121.789 31.4799 121.229 31.8319C120.685 32.1839 120.253 32.6959 119.933 33.3679C119.629 34.0239 119.477 34.8479 119.477 35.8399C119.477 36.5439 119.557 37.1759 119.717 37.7359C119.893 38.2799 120.141 38.7439 120.461 39.1279C120.797 39.5119 121.189 39.8079 121.637 40.0159C122.101 40.2079 122.613 40.3039 123.173 40.3039ZM131.473 42.1519V29.4559H133.681L133.801 31.7119H133.921C134.193 30.8959 134.665 30.2879 135.337 29.8879C136.009 29.4879 136.761 29.2879 137.593 29.2879C137.737 29.2879 137.865 29.2959 137.977 29.3119C138.105 29.3119 138.225 29.3199 138.337 29.3359V31.6639C138.241 31.6479 138.121 31.6399 137.977 31.6399C137.849 31.6399 137.713 31.6399 137.569 31.6399C136.817 31.6399 136.177 31.7679 135.649 32.0239C135.121 32.2799 134.713 32.6559 134.425 33.1519C134.137 33.6319 133.969 34.2159 133.921 34.9039V42.1519H131.473ZM144.898 42.3679C143.634 42.3679 142.538 42.1039 141.61 41.5759C140.698 41.0319 139.994 40.2719 139.498 39.2959C139.002 38.3039 138.754 37.1599 138.754 35.8639C138.754 34.5199 139.002 33.3519 139.498 32.3599C139.994 31.3679 140.69 30.6079 141.586 30.0799C142.498 29.5359 143.57 29.2639 144.802 29.2639C146.194 29.2639 147.338 29.5759 148.234 30.1999C149.146 30.8079 149.802 31.6479 150.202 32.7199C150.602 33.7759 150.738 34.9679 150.61 36.2959H141.202C141.218 37.1599 141.378 37.9039 141.682 38.5279C141.986 39.1359 142.41 39.5999 142.954 39.9199C143.514 40.2399 144.162 40.3999 144.898 40.3999C145.746 40.3999 146.466 40.2079 147.058 39.8239C147.65 39.4239 148.026 38.8959 148.186 38.2399H150.538C150.426 39.0719 150.114 39.7999 149.602 40.4239C149.09 41.0319 148.426 41.5119 147.61 41.8639C146.81 42.1999 145.906 42.3679 144.898 42.3679ZM141.226 34.9039L140.986 34.5439H148.426L148.186 34.9519C148.218 34.0719 148.082 33.3599 147.778 32.8159C147.49 32.2559 147.082 31.8479 146.554 31.5919C146.042 31.3359 145.45 31.2079 144.778 31.2079C144.074 31.2079 143.458 31.3599 142.93 31.6639C142.402 31.9519 141.994 32.3759 141.706 32.9359C141.418 33.4959 141.258 34.1519 141.226 34.9039Z" fill="black"/>
</svg>
