<?xml version="1.0" encoding="UTF-8"?>
<svg id="Layer_1" data-name="Layer 1" xmlns="http://www.w3.org/2000/svg" viewBox="0 0 30 30">
  <defs>
    <style>
      .cls-1 {
        fill: #3b4f74;
      }
    </style>
  </defs>
  <path class="cls-1" d="M21.32,4.49H7.83c-.27,0-.49.22-.49.49v20.49c0,.27.22.49.49.49h13.49c.27,0,.49-.22.49-.49V4.98c0-.27-.22-.49-.49-.49ZM20.83,5.47v19.5h-12.51V5.47h12.51Z"/>
  <path class="cls-1" d="M15.35,22.17h-1.55c-.27,0-.49.22-.49.49s.22.49.49.49h1.55c.27,0,.49-.22.49-.49s-.22-.49-.49-.49Z"/>
  <path class="cls-1" d="M15.91,11.45h2c.64,0,1.15-.51,1.15-1.15v-1.97c0-.63-.52-1.15-1.15-1.15h-2c-.64,0-1.16.52-1.16,1.15v1.97c0,.63.52,1.15,1.16,1.15ZM18.07,10.31c0,.09-.08.16-.17.16h-2c-.1,0-.18-.07-.18-.16v-1.97c0-.09.08-.17.18-.17h2c.1,0,.17.07.17.17v1.97Z"/>
  <path class="cls-1" d="M11.24,11.45h2c.64,0,1.16-.51,1.16-1.15v-1.97c0-.63-.52-1.15-1.16-1.15h-2c-.64,0-1.16.52-1.16,1.15v1.97c0,.63.52,1.15,1.16,1.15ZM11.07,10.31v-1.97c0-.09.08-.17.17-.17h2c.1,0,.17.07.17.17v1.97c0,.09-.08.16-.17.16h-2c-.09,0-.17-.07-.17-.16Z"/>
  <path class="cls-1" d="M15.91,16.04h2c.64,0,1.15-.52,1.15-1.15v-1.97c0-.63-.52-1.15-1.15-1.15h-2c-.64,0-1.16.51-1.16,1.15v1.97c0,.63.52,1.15,1.16,1.15ZM18.07,14.89c0,.09-.07.17-.17.17h-2c-.1,0-.18-.07-.18-.17v-1.97c0-.09.08-.16.18-.16h2c.09,0,.17.07.17.16v1.97Z"/>
  <path class="cls-1" d="M11.24,16.04h2c.64,0,1.16-.52,1.16-1.15v-1.97c0-.63-.52-1.15-1.16-1.15h-2c-.64,0-1.16.51-1.16,1.15v1.97c0,.63.52,1.15,1.16,1.15ZM11.07,14.89v-1.97c0-.09.08-.16.17-.16h2c.09,0,.17.07.17.16v1.97c0,.09-.08.17-.17.17h-2c-.1,0-.17-.07-.17-.17Z"/>
</svg>