<svg width="166" height="56" viewBox="0 0 166 56" fill="none" xmlns="http://www.w3.org/2000/svg">
<rect x="0.513559" y="0.486215" width="164.999" height="54.7802" rx="8.5898" stroke="black" stroke-width="0.97243"/>
<path d="M33.1344 32.8206C36.8673 30.7342 39.7219 29.1446 39.9658 29.0204C40.7466 28.5982 41.5517 27.4805 39.9658 26.6112C39.4535 26.338 36.6965 24.798 33.1344 22.811L28.2305 27.8282L33.1344 32.8206Z" fill="#FFD400"/>
<path d="M28.2298 27.8281L12.5664 43.8981C12.9324 43.9477 13.3471 43.8484 13.8351 43.5752C14.8598 43.0039 25.7413 36.9435 33.1338 32.8205L28.2298 27.8281Z" fill="#FF3333"/>
<path d="M28.2269 27.8282L33.1309 22.811C33.1309 22.811 14.9301 12.7021 13.8321 12.106C13.4174 11.8576 12.9538 11.7831 12.5391 11.8576L28.2269 27.8282Z" fill="#48FF48"/>
<path d="M28.23 27.8285L12.5422 11.8579C11.9078 12.0069 11.3711 12.5782 11.3711 13.7456C11.3711 15.6084 11.3711 40.446 11.3711 42.0108C11.3711 43.0788 11.7859 43.8487 12.5666 43.9233L28.23 27.8285Z" fill="#3BCCFF"/>
<path d="M49.9524 17.1035V9.08452H53.1974C53.9674 9.08452 54.62 9.25318 55.1554 9.59052C55.698 9.92052 56.1124 10.3862 56.3984 10.9875C56.6844 11.5888 56.8274 12.2928 56.8274 13.0995C56.8274 13.7008 56.7467 14.2472 56.5854 14.7385C56.424 15.2298 56.1857 15.6515 55.8704 16.0035C55.5624 16.3555 55.1847 16.6268 54.7374 16.8175C54.29 17.0082 53.7767 17.1035 53.1974 17.1035H49.9524ZM51.1514 16.0695H53.0214C53.41 16.0695 53.762 16.0108 54.0774 15.8935C54.3927 15.7688 54.664 15.5855 54.8914 15.3435C55.1187 15.0942 55.291 14.7825 55.4084 14.4085C55.533 14.0272 55.5954 13.5835 55.5954 13.0775C55.5954 12.3955 55.489 11.8382 55.2764 11.4055C55.0637 10.9655 54.763 10.6428 54.3744 10.4375C53.9857 10.2248 53.5347 10.1185 53.0214 10.1185H51.1514V16.0695ZM60.5868 17.2025C60.1615 17.2025 59.7728 17.1328 59.4208 16.9935C59.0761 16.8542 58.7791 16.6525 58.5298 16.3885C58.2805 16.1245 58.0861 15.8092 57.9468 15.4425C57.8075 15.0758 57.7378 14.6652 57.7378 14.2105C57.7378 13.6092 57.8515 13.0848 58.0788 12.6375C58.3135 12.1828 58.6435 11.8308 59.0688 11.5815C59.5015 11.3248 60.0075 11.1965 60.5868 11.1965C61.0121 11.1965 61.3971 11.2662 61.7418 11.4055C62.0938 11.5375 62.3945 11.7355 62.6438 11.9995C62.8931 12.2635 63.0838 12.5825 63.2158 12.9565C63.3551 13.3232 63.4248 13.7375 63.4248 14.1995C63.4248 14.7935 63.3111 15.3178 63.0838 15.7725C62.8565 16.2198 62.5301 16.5718 62.1048 16.8285C61.6795 17.0778 61.1735 17.2025 60.5868 17.2025ZM60.5868 16.2565C60.9241 16.2565 61.2175 16.1795 61.4668 16.0255C61.7235 15.8642 61.9215 15.6295 62.0608 15.3215C62.2001 15.0135 62.2698 14.6395 62.2698 14.1995C62.2698 13.8695 62.2295 13.5798 62.1488 13.3305C62.0755 13.0738 61.9655 12.8575 61.8188 12.6815C61.6721 12.4982 61.4961 12.3625 61.2908 12.2745C61.0855 12.1792 60.8508 12.1315 60.5868 12.1315C60.2495 12.1315 59.9525 12.2122 59.6958 12.3735C59.4465 12.5348 59.2485 12.7695 59.1018 13.0775C58.9625 13.3782 58.8928 13.7558 58.8928 14.2105C58.8928 14.5332 58.9295 14.8228 59.0028 15.0795C59.0835 15.3288 59.1971 15.5415 59.3438 15.7175C59.4978 15.8935 59.6775 16.0292 59.8828 16.1245C60.0955 16.2125 60.3301 16.2565 60.5868 16.2565ZM65.2629 17.1035L63.7779 11.2845H64.9439L66.0879 15.9705H66.1429L67.2209 11.2845H68.4749L69.5859 15.9815H69.6189L70.7629 11.2845H71.8739L70.3889 17.1035H68.9039L67.8259 12.7255H67.7819L66.7369 17.1035H65.2629ZM72.7324 17.1035V11.2845H73.8104L73.8544 12.4395H73.9204C74.0891 12.0288 74.3531 11.7208 74.7124 11.5155C75.0718 11.3028 75.4641 11.1965 75.8894 11.1965C76.1901 11.1965 76.4651 11.2405 76.7144 11.3285C76.9711 11.4165 77.1911 11.5595 77.3744 11.7575C77.5651 11.9482 77.7118 12.2012 77.8144 12.5165C77.9171 12.8245 77.9684 13.2022 77.9684 13.6495V17.1035H76.8354V13.8805C76.8354 13.4845 76.7878 13.1582 76.6924 12.9015C76.5971 12.6375 76.4504 12.4432 76.2524 12.3185C76.0544 12.1938 75.7978 12.1315 75.4824 12.1315C75.1524 12.1315 74.8628 12.2122 74.6134 12.3735C74.3714 12.5348 74.1844 12.7512 74.0524 13.0225C73.9204 13.2865 73.8544 13.5872 73.8544 13.9245V17.1035H72.7324ZM79.5 17.1035V9.08452H80.633V17.1035H79.5ZM84.66 17.2025C84.2347 17.2025 83.846 17.1328 83.494 16.9935C83.1494 16.8542 82.8524 16.6525 82.603 16.3885C82.3537 16.1245 82.1594 15.8092 82.02 15.4425C81.8807 15.0758 81.811 14.6652 81.811 14.2105C81.811 13.6092 81.9247 13.0848 82.152 12.6375C82.3867 12.1828 82.7167 11.8308 83.142 11.5815C83.5747 11.3248 84.0807 11.1965 84.66 11.1965C85.0854 11.1965 85.4704 11.2662 85.815 11.4055C86.167 11.5375 86.4677 11.7355 86.717 11.9995C86.9664 12.2635 87.157 12.5825 87.289 12.9565C87.4284 13.3232 87.498 13.7375 87.498 14.1995C87.498 14.7935 87.3844 15.3178 87.157 15.7725C86.9297 16.2198 86.6034 16.5718 86.178 16.8285C85.7527 17.0778 85.2467 17.2025 84.66 17.2025ZM84.66 16.2565C84.9974 16.2565 85.2907 16.1795 85.54 16.0255C85.7967 15.8642 85.9947 15.6295 86.134 15.3215C86.2734 15.0135 86.343 14.6395 86.343 14.1995C86.343 13.8695 86.3027 13.5798 86.222 13.3305C86.1487 13.0738 86.0387 12.8575 85.892 12.6815C85.7454 12.4982 85.5694 12.3625 85.364 12.2745C85.1587 12.1792 84.924 12.1315 84.66 12.1315C84.3227 12.1315 84.0257 12.2122 83.769 12.3735C83.5197 12.5348 83.3217 12.7695 83.175 13.0775C83.0357 13.3782 82.966 13.7558 82.966 14.2105C82.966 14.5332 83.0027 14.8228 83.076 15.0795C83.1567 15.3288 83.2704 15.5415 83.417 15.7175C83.571 15.8935 83.7507 16.0292 83.956 16.1245C84.1687 16.2125 84.4034 16.2565 84.66 16.2565ZM90.772 17.2025C90.42 17.2025 90.0973 17.1365 89.804 17.0045C89.518 16.8725 89.2687 16.6818 89.056 16.4325C88.8433 16.1758 88.6783 15.8605 88.561 15.4865C88.451 15.1125 88.396 14.6798 88.396 14.1885C88.396 13.5432 88.495 12.9968 88.693 12.5495C88.8983 12.1022 89.177 11.7648 89.529 11.5375C89.8883 11.3028 90.3027 11.1855 90.772 11.1855C91.0947 11.1855 91.388 11.2368 91.652 11.3395C91.9233 11.4422 92.1507 11.5888 92.334 11.7795C92.5247 11.9628 92.664 12.1792 92.752 12.4285H92.818L92.862 11.2845H93.951V17.1035H92.818V15.9485H92.752C92.6127 16.3225 92.3707 16.6268 92.026 16.8615C91.6813 17.0888 91.2633 17.2025 90.772 17.2025ZM91.168 16.2675C91.5273 16.2675 91.828 16.1832 92.07 16.0145C92.312 15.8458 92.4953 15.6295 92.62 15.3655C92.7447 15.1015 92.807 14.8192 92.807 14.5185V13.8585C92.807 13.5578 92.7447 13.2755 92.62 13.0115C92.4953 12.7475 92.312 12.5312 92.07 12.3625C91.828 12.1938 91.5273 12.1095 91.168 12.1095C90.8453 12.1095 90.563 12.1902 90.321 12.3515C90.079 12.5055 89.892 12.7365 89.76 13.0445C89.628 13.3452 89.562 13.7265 89.562 14.1885C89.562 14.6432 89.628 15.0245 89.76 15.3325C89.892 15.6405 90.079 15.8752 90.321 16.0365C90.563 16.1905 90.8453 16.2675 91.168 16.2675ZM97.4751 17.2025C97.1231 17.2025 96.8005 17.1365 96.5071 17.0045C96.2211 16.8725 95.9718 16.6818 95.7591 16.4325C95.5465 16.1758 95.3815 15.8605 95.2641 15.4865C95.1541 15.1125 95.0991 14.6798 95.0991 14.1885C95.0991 13.5432 95.1981 12.9968 95.3961 12.5495C95.6015 12.1022 95.8801 11.7648 96.2321 11.5375C96.5915 11.3028 97.0058 11.1855 97.4751 11.1855C97.7978 11.1855 98.0911 11.2368 98.3551 11.3395C98.6265 11.4422 98.8538 11.5888 99.0371 11.7795C99.2278 11.9628 99.3671 12.1792 99.4551 12.4285H99.5211V9.08452H100.654V17.1035H99.5651L99.5211 15.9485H99.4551C99.3158 16.3225 99.0738 16.6268 98.7291 16.8615C98.3845 17.0888 97.9665 17.2025 97.4751 17.2025ZM97.8711 16.2675C98.2305 16.2675 98.5311 16.1832 98.7731 16.0145C99.0151 15.8458 99.1985 15.6295 99.3231 15.3655C99.4478 15.1015 99.5101 14.8192 99.5101 14.5185V13.8585C99.5101 13.6385 99.4735 13.4258 99.4001 13.2205C99.3341 13.0078 99.2315 12.8208 99.0921 12.6595C98.9601 12.4908 98.7915 12.3588 98.5861 12.2635C98.3808 12.1608 98.1425 12.1095 97.8711 12.1095C97.5485 12.1095 97.2661 12.1902 97.0241 12.3515C96.7821 12.5055 96.5951 12.7365 96.4631 13.0445C96.3311 13.3452 96.2651 13.7265 96.2651 14.1885C96.2651 14.6432 96.3311 15.0245 96.4631 15.3325C96.5951 15.6405 96.7821 15.8752 97.0241 16.0365C97.2661 16.1905 97.5485 16.2675 97.8711 16.2675ZM107.154 17.2025C106.729 17.2025 106.34 17.1328 105.988 16.9935C105.644 16.8542 105.347 16.6525 105.097 16.3885C104.848 16.1245 104.654 15.8092 104.514 15.4425C104.375 15.0758 104.305 14.6652 104.305 14.2105C104.305 13.6092 104.419 13.0848 104.646 12.6375C104.881 12.1828 105.211 11.8308 105.636 11.5815C106.069 11.3248 106.575 11.1965 107.154 11.1965C107.58 11.1965 107.965 11.2662 108.309 11.4055C108.661 11.5375 108.962 11.7355 109.211 11.9995C109.461 12.2635 109.651 12.5825 109.783 12.9565C109.923 13.3232 109.992 13.7375 109.992 14.1995C109.992 14.7935 109.879 15.3178 109.651 15.7725C109.424 16.2198 109.098 16.5718 108.672 16.8285C108.247 17.0778 107.741 17.2025 107.154 17.2025ZM107.154 16.2565C107.492 16.2565 107.785 16.1795 108.034 16.0255C108.291 15.8642 108.489 15.6295 108.628 15.3215C108.768 15.0135 108.837 14.6395 108.837 14.1995C108.837 13.8695 108.797 13.5798 108.716 13.3305C108.643 13.0738 108.533 12.8575 108.386 12.6815C108.24 12.4982 108.064 12.3625 107.858 12.2745C107.653 12.1792 107.418 12.1315 107.154 12.1315C106.817 12.1315 106.52 12.2122 106.263 12.3735C106.014 12.5348 105.816 12.7695 105.669 13.0775C105.53 13.3782 105.46 13.7558 105.46 14.2105C105.46 14.5332 105.497 14.8228 105.57 15.0795C105.651 15.3288 105.765 15.5415 105.911 15.7175C106.065 15.8935 106.245 16.0292 106.45 16.1245C106.663 16.2125 106.898 16.2565 107.154 16.2565ZM111.179 17.1035V11.2845H112.257L112.301 12.4395H112.367C112.535 12.0288 112.799 11.7208 113.159 11.5155C113.518 11.3028 113.91 11.1965 114.336 11.1965C114.636 11.1965 114.911 11.2405 115.161 11.3285C115.417 11.4165 115.637 11.5595 115.821 11.7575C116.011 11.9482 116.158 12.2012 116.261 12.5165C116.363 12.8245 116.415 13.2022 116.415 13.6495V17.1035H115.282V13.8805C115.282 13.4845 115.234 13.1582 115.139 12.9015C115.043 12.6375 114.897 12.4432 114.699 12.3185C114.501 12.1938 114.244 12.1315 113.929 12.1315C113.599 12.1315 113.309 12.2122 113.06 12.3735C112.818 12.5348 112.631 12.7512 112.499 13.0225C112.367 13.2865 112.301 13.5872 112.301 13.9245V17.1035H111.179ZM122.067 17.1035C121.745 17.1035 121.492 17.0595 121.308 16.9715C121.125 16.8762 120.997 16.7368 120.923 16.5535C120.85 16.3702 120.813 16.1502 120.813 15.8935V12.2085H119.713V11.2845H120.813V9.60152L121.946 9.46952V11.2845H123.233V12.2085H121.946V15.6845C121.946 15.8825 121.983 16.0145 122.056 16.0805C122.13 16.1392 122.258 16.1685 122.441 16.1685H123.233V17.1035H122.067ZM124.359 17.1035V9.08452H125.481V12.4395H125.547C125.716 12.0288 125.98 11.7208 126.339 11.5155C126.699 11.3028 127.091 11.1965 127.516 11.1965C127.817 11.1965 128.092 11.2405 128.341 11.3285C128.598 11.4165 128.818 11.5595 129.001 11.7575C129.192 11.9482 129.339 12.2012 129.441 12.5165C129.544 12.8245 129.595 13.2022 129.595 13.6495V17.1035H128.462V13.8805C128.462 13.4845 128.415 13.1582 128.319 12.9015C128.224 12.6375 128.077 12.4432 127.879 12.3185C127.681 12.1938 127.425 12.1315 127.109 12.1315C126.779 12.1315 126.49 12.2122 126.24 12.3735C125.998 12.5348 125.811 12.7512 125.679 13.0225C125.547 13.2865 125.481 13.5872 125.481 13.9245V17.1035H124.359ZM133.547 17.2025C132.968 17.2025 132.465 17.0815 132.04 16.8395C131.622 16.5902 131.299 16.2418 131.072 15.7945C130.845 15.3398 130.731 14.8155 130.731 14.2215C130.731 13.6055 130.845 13.0702 131.072 12.6155C131.299 12.1608 131.618 11.8125 132.029 11.5705C132.447 11.3212 132.938 11.1965 133.503 11.1965C134.141 11.1965 134.665 11.3395 135.076 11.6255C135.494 11.9042 135.795 12.2892 135.978 12.7805C136.161 13.2645 136.224 13.8108 136.165 14.4195H131.853C131.86 14.8155 131.934 15.1565 132.073 15.4425C132.212 15.7212 132.407 15.9338 132.656 16.0805C132.913 16.2272 133.21 16.3005 133.547 16.3005C133.936 16.3005 134.266 16.2125 134.537 16.0365C134.808 15.8532 134.981 15.6112 135.054 15.3105H136.132C136.081 15.6918 135.938 16.0255 135.703 16.3115C135.468 16.5902 135.164 16.8102 134.79 16.9715C134.423 17.1255 134.009 17.2025 133.547 17.2025ZM131.864 13.7815L131.754 13.6165H135.164L135.054 13.8035C135.069 13.4002 135.006 13.0738 134.867 12.8245C134.735 12.5678 134.548 12.3808 134.306 12.2635C134.071 12.1462 133.8 12.0875 133.492 12.0875C133.169 12.0875 132.887 12.1572 132.645 12.2965C132.403 12.4285 132.216 12.6228 132.084 12.8795C131.952 13.1362 131.879 13.4368 131.864 13.7815Z" fill="black"/>
<path d="M51.0964 42.1519V24.6559H58.1764C59.1044 24.6559 59.9444 24.7839 60.6964 25.0399C61.4484 25.2799 62.0884 25.6399 62.6164 26.1199C63.1604 26.5839 63.5684 27.1599 63.8404 27.8479C64.1284 28.5359 64.2724 29.3279 64.2724 30.2239C64.2724 31.3439 64.0244 32.3279 63.5284 33.1759C63.0484 34.0079 62.3524 34.6559 61.4404 35.1199C60.5284 35.5679 59.4324 35.7919 58.1524 35.7919H53.4244V33.7039H57.7684C58.5204 33.7039 59.1844 33.5839 59.7604 33.3439C60.3364 33.1039 60.7844 32.7279 61.1044 32.2159C61.4404 31.7039 61.6084 31.0639 61.6084 30.2959C61.6084 29.5119 61.4404 28.8719 61.1044 28.3759C60.7844 27.8799 60.3364 27.5119 59.7604 27.2719C59.1844 27.0319 58.5204 26.9119 57.7684 26.9119H53.3044L53.7124 26.5039V42.1519H51.0964ZM66.1699 42.1519V24.6559H68.6419V42.1519H66.1699ZM75.9161 42.3679C75.1481 42.3679 74.4441 42.2239 73.8041 41.9359C73.1801 41.6479 72.6361 41.2319 72.1721 40.6879C71.7081 40.1279 71.3481 39.4399 71.0921 38.6239C70.8521 37.8079 70.7321 36.8639 70.7321 35.7919C70.7321 34.3839 70.9481 33.1919 71.3801 32.2159C71.8281 31.2399 72.4361 30.5039 73.2041 30.0079C73.9881 29.4959 74.8921 29.2399 75.9161 29.2399C76.6201 29.2399 77.2601 29.3519 77.8361 29.5759C78.4281 29.7999 78.9241 30.1199 79.3241 30.5359C79.7401 30.9359 80.0441 31.4079 80.2361 31.9519H80.3801L80.4761 29.4559H82.8521V42.1519H80.3801V39.6319H80.2361C79.9321 40.4479 79.4041 41.1119 78.6521 41.6239C77.9001 42.1199 76.9881 42.3679 75.9161 42.3679ZM76.7801 40.3279C77.5641 40.3279 78.2201 40.1439 78.7481 39.7759C79.2761 39.4079 79.6761 38.9359 79.9481 38.3599C80.2201 37.7839 80.3561 37.1679 80.3561 36.5119V35.0719C80.3561 34.4159 80.2201 33.7999 79.9481 33.2239C79.6761 32.6479 79.2761 32.1759 78.7481 31.8079C78.2201 31.4399 77.5641 31.2559 76.7801 31.2559C76.0761 31.2559 75.4601 31.4319 74.9321 31.7839C74.4041 32.1199 73.9961 32.6239 73.7081 33.2959C73.4201 33.9519 73.2761 34.7839 73.2761 35.7919C73.2761 36.7839 73.4201 37.6159 73.7081 38.2879C73.9961 38.9599 74.4041 39.4719 74.9321 39.8239C75.4601 40.1599 76.0761 40.3279 76.7801 40.3279ZM84.9949 46.1599V44.1199H86.3629C86.7309 44.1199 87.0429 44.0639 87.2989 43.9519C87.5709 43.8559 87.8029 43.6959 87.9949 43.4719C88.1869 43.2639 88.3469 42.9919 88.4749 42.6559L89.2429 40.6879V41.7679L84.0349 29.4559H86.7469L89.6509 37.1839L90.1789 38.6959H90.2749L90.7789 37.1839L93.5149 29.4559H96.1309L90.8509 43.2559C90.5789 43.9759 90.2509 44.5439 89.8669 44.9599C89.4989 45.3919 89.0589 45.6959 88.5469 45.8719C88.0349 46.0639 87.4429 46.1599 86.7709 46.1599H84.9949ZM108.435 42.3679C106.883 42.3679 105.595 42.1279 104.571 41.6479C103.547 41.1679 102.779 40.5039 102.267 39.6559C101.755 38.7919 101.491 37.7999 101.475 36.6799H104.163C104.179 37.4159 104.339 38.0639 104.643 38.6239C104.963 39.1679 105.435 39.5839 106.059 39.8719C106.683 40.1599 107.491 40.3039 108.483 40.3039C109.715 40.3039 110.699 40.0799 111.435 39.6319C112.187 39.1839 112.563 38.4959 112.563 37.5679C112.563 37.0399 112.483 36.5999 112.323 36.2479C112.163 35.8959 111.899 35.6079 111.531 35.3839C111.179 35.1439 110.707 34.9439 110.115 34.7839C109.523 34.6239 108.803 34.4719 107.955 34.3279C106.947 34.1519 106.059 33.9439 105.291 33.7039C104.539 33.4479 103.907 33.1359 103.395 32.7679C102.899 32.3839 102.523 31.9199 102.267 31.3759C102.011 30.8319 101.883 30.1919 101.883 29.4559C101.883 28.4319 102.139 27.5439 102.651 26.7919C103.163 26.0399 103.899 25.4639 104.859 25.0639C105.819 24.6639 106.971 24.4639 108.315 24.4639C109.659 24.4639 110.803 24.6799 111.747 25.1119C112.691 25.5279 113.419 26.1199 113.931 26.8879C114.443 27.6399 114.707 28.5359 114.723 29.5759H112.059C112.043 28.8719 111.867 28.2959 111.531 27.8479C111.211 27.3839 110.763 27.0399 110.187 26.8159C109.627 26.5919 108.971 26.4799 108.219 26.4799C107.451 26.4799 106.795 26.5919 106.251 26.8159C105.723 27.0239 105.315 27.3279 105.027 27.7279C104.739 28.1119 104.595 28.5679 104.595 29.0959C104.595 29.7359 104.747 30.2319 105.051 30.5839C105.371 30.9359 105.875 31.2159 106.563 31.4239C107.251 31.6159 108.155 31.8159 109.275 32.0239C110.059 32.1359 110.803 32.2959 111.507 32.5039C112.227 32.7119 112.867 32.9999 113.427 33.3679C114.003 33.7359 114.451 34.2399 114.771 34.8799C115.107 35.5039 115.275 36.3199 115.275 37.3279C115.275 38.3199 115.011 39.1999 114.483 39.9679C113.971 40.7199 113.203 41.3119 112.179 41.7439C111.171 42.1599 109.923 42.3679 108.435 42.3679ZM121.206 42.1519C120.502 42.1519 119.95 42.0559 119.55 41.8639C119.15 41.6559 118.87 41.3519 118.71 40.9519C118.55 40.5519 118.47 40.0719 118.47 39.5119V31.4719H116.07V29.4559H118.47V25.7839L120.942 25.4959V29.4559H123.75V31.4719H120.942V39.0559C120.942 39.4879 121.022 39.7759 121.182 39.9199C121.342 40.0479 121.622 40.1119 122.022 40.1119H123.75V42.1519H121.206ZM130.728 42.3679C129.8 42.3679 128.952 42.2159 128.184 41.9119C127.432 41.6079 126.784 41.1679 126.24 40.5919C125.696 40.0159 125.272 39.3279 124.968 38.5279C124.664 37.7279 124.512 36.8319 124.512 35.8399C124.512 34.5279 124.76 33.3839 125.256 32.4079C125.768 31.4159 126.488 30.6479 127.416 30.1039C128.36 29.5439 129.464 29.2639 130.728 29.2639C131.656 29.2639 132.496 29.4159 133.248 29.7199C134.016 30.0079 134.672 30.4399 135.216 31.0159C135.76 31.5919 136.176 32.2879 136.464 33.1039C136.768 33.9039 136.92 34.8079 136.92 35.8159C136.92 37.1119 136.672 38.2559 136.176 39.2479C135.68 40.2239 134.968 40.9919 134.04 41.5519C133.112 42.0959 132.008 42.3679 130.728 42.3679ZM130.728 40.3039C131.464 40.3039 132.104 40.1359 132.648 39.7999C133.208 39.4479 133.64 38.9359 133.944 38.2639C134.248 37.5919 134.4 36.7759 134.4 35.8159C134.4 35.0959 134.312 34.4639 134.136 33.9199C133.976 33.3599 133.736 32.8879 133.416 32.5039C133.096 32.1039 132.712 31.8079 132.264 31.6159C131.816 31.4079 131.304 31.3039 130.728 31.3039C129.992 31.3039 129.344 31.4799 128.784 31.8319C128.24 32.1839 127.808 32.6959 127.488 33.3679C127.184 34.0239 127.032 34.8479 127.032 35.8399C127.032 36.5439 127.112 37.1759 127.272 37.7359C127.448 38.2799 127.696 38.7439 128.016 39.1279C128.352 39.5119 128.744 39.8079 129.192 40.0159C129.656 40.2079 130.168 40.3039 130.728 40.3039ZM139.029 42.1519V29.4559H141.237L141.357 31.7119H141.477C141.749 30.8959 142.221 30.2879 142.893 29.8879C143.565 29.4879 144.317 29.2879 145.149 29.2879C145.293 29.2879 145.421 29.2959 145.533 29.3119C145.661 29.3119 145.781 29.3199 145.893 29.3359V31.6639C145.797 31.6479 145.677 31.6399 145.533 31.6399C145.405 31.6399 145.269 31.6399 145.125 31.6399C144.373 31.6399 143.733 31.7679 143.205 32.0239C142.677 32.2799 142.269 32.6559 141.981 33.1519C141.693 33.6319 141.525 34.2159 141.477 34.9039V42.1519H139.029ZM152.454 42.3679C151.19 42.3679 150.094 42.1039 149.166 41.5759C148.254 41.0319 147.55 40.2719 147.054 39.2959C146.558 38.3039 146.31 37.1599 146.31 35.8639C146.31 34.5199 146.558 33.3519 147.054 32.3599C147.55 31.3679 148.246 30.6079 149.142 30.0799C150.054 29.5359 151.126 29.2639 152.358 29.2639C153.75 29.2639 154.894 29.5759 155.79 30.1999C156.702 30.8079 157.358 31.6479 157.758 32.7199C158.158 33.7759 158.294 34.9679 158.166 36.2959H148.758C148.774 37.1599 148.934 37.9039 149.238 38.5279C149.542 39.1359 149.966 39.5999 150.51 39.9199C151.07 40.2399 151.718 40.3999 152.454 40.3999C153.302 40.3999 154.022 40.2079 154.614 39.8239C155.206 39.4239 155.582 38.8959 155.742 38.2399H158.094C157.982 39.0719 157.67 39.7999 157.158 40.4239C156.646 41.0319 155.982 41.5119 155.166 41.8639C154.366 42.1999 153.462 42.3679 152.454 42.3679ZM148.782 34.9039L148.542 34.5439H155.982L155.742 34.9519C155.774 34.0719 155.638 33.3599 155.334 32.8159C155.046 32.2559 154.638 31.8479 154.11 31.5919C153.598 31.3359 153.006 31.2079 152.334 31.2079C151.63 31.2079 151.014 31.3599 150.486 31.6639C149.958 31.9519 149.55 32.3759 149.262 32.9359C148.974 33.4959 148.814 34.1519 148.782 34.9039Z" fill="black"/>
</svg>
