<svg width="447" height="71" viewBox="0 0 447 71" fill="none" xmlns="http://www.w3.org/2000/svg">
<path d="M0 0H447L394.713 71H0V0Z" fill="#39A1CA"/>
<path d="M108.932 45V25.4H116.268C117.855 25.4 119.171 25.6707 120.216 26.212C121.261 26.7533 122.036 27.4813 122.54 28.396C123.044 29.3107 123.296 30.356 123.296 31.532C123.296 32.6147 123.053 33.6133 122.568 34.528C122.083 35.4427 121.317 36.1893 120.272 36.768C119.227 37.328 117.892 37.608 116.268 37.608H112.712V45H108.932ZM112.712 34.556H116.044C117.257 34.556 118.125 34.2853 118.648 33.744C119.189 33.184 119.46 32.4467 119.46 31.532C119.46 30.5613 119.189 29.8147 118.648 29.292C118.125 28.7507 117.257 28.48 116.044 28.48H112.712V34.556ZM132 45.336C130.656 45.336 129.443 45.028 128.36 44.412C127.296 43.7773 126.447 42.9093 125.812 41.808C125.196 40.688 124.888 39.4093 124.888 37.972C124.888 36.4973 125.196 35.2093 125.812 34.108C126.447 32.988 127.306 32.12 128.388 31.504C129.471 30.8693 130.684 30.552 132.028 30.552C133.391 30.552 134.604 30.8693 135.668 31.504C136.751 32.12 137.6 32.988 138.216 34.108C138.851 35.2093 139.168 36.488 139.168 37.944C139.168 39.4 138.851 40.688 138.216 41.808C137.6 42.9093 136.751 43.7773 135.668 44.412C134.586 45.028 133.363 45.336 132 45.336ZM132 42.06C132.635 42.06 133.195 41.9107 133.68 41.612C134.184 41.3133 134.576 40.856 134.856 40.24C135.155 39.624 135.304 38.8587 135.304 37.944C135.304 37.0293 135.155 36.2733 134.856 35.676C134.576 35.06 134.184 34.6027 133.68 34.304C133.195 33.9867 132.644 33.828 132.028 33.828C131.431 33.828 130.88 33.9867 130.376 34.304C129.872 34.6027 129.471 35.06 129.172 35.676C128.892 36.2733 128.752 37.0293 128.752 37.944C128.752 38.8587 128.892 39.624 129.172 40.24C129.471 40.856 129.863 41.3133 130.348 41.612C130.852 41.9107 131.403 42.06 132 42.06ZM144.733 45L140.589 30.888H144.313L147.057 42.34L146.357 42.312L149.493 30.888H153.693L156.829 42.312L156.101 42.34L158.873 30.888H162.597L158.453 45H154.533L151.201 33.24H151.985L148.653 45H144.733ZM171.241 45.336C169.823 45.336 168.563 45.0373 167.461 44.44C166.379 43.824 165.529 42.9747 164.913 41.892C164.316 40.7907 164.017 39.5213 164.017 38.084C164.017 36.6093 164.316 35.312 164.913 34.192C165.529 33.0533 166.379 32.1667 167.461 31.532C168.544 30.8787 169.804 30.552 171.241 30.552C172.641 30.552 173.864 30.86 174.909 31.476C175.955 32.092 176.767 32.9227 177.345 33.968C177.924 35.0133 178.213 36.1987 178.213 37.524C178.213 37.7107 178.213 37.9253 178.213 38.168C178.213 38.392 178.195 38.6253 178.157 38.868H166.705V36.572H174.405C174.349 35.6573 174.023 34.9387 173.425 34.416C172.847 33.8933 172.119 33.632 171.241 33.632C170.607 33.632 170.019 33.7813 169.477 34.08C168.936 34.36 168.507 34.7987 168.189 35.396C167.891 35.9933 167.741 36.7493 167.741 37.664V38.476C167.741 39.2413 167.881 39.9133 168.161 40.492C168.46 41.052 168.871 41.4907 169.393 41.808C169.916 42.1067 170.523 42.256 171.213 42.256C171.904 42.256 172.473 42.1067 172.921 41.808C173.388 41.5093 173.733 41.1267 173.957 40.66H177.821C177.56 41.5373 177.121 42.3307 176.505 43.04C175.889 43.7493 175.133 44.3093 174.237 44.72C173.341 45.1307 172.343 45.336 171.241 45.336ZM181.309 45V30.888H184.669L185.033 33.492C185.369 32.876 185.789 32.3533 186.293 31.924C186.816 31.4947 187.404 31.1587 188.057 30.916C188.729 30.6733 189.466 30.552 190.269 30.552V34.556H188.981C188.421 34.556 187.898 34.6213 187.413 34.752C186.946 34.8827 186.536 35.0973 186.181 35.396C185.826 35.676 185.556 36.068 185.369 36.572C185.182 37.076 185.089 37.7107 185.089 38.476V45H181.309ZM199.323 45.336C197.905 45.336 196.645 45.0373 195.543 44.44C194.461 43.824 193.611 42.9747 192.995 41.892C192.398 40.7907 192.099 39.5213 192.099 38.084C192.099 36.6093 192.398 35.312 192.995 34.192C193.611 33.0533 194.461 32.1667 195.543 31.532C196.626 30.8787 197.886 30.552 199.323 30.552C200.723 30.552 201.946 30.86 202.991 31.476C204.037 32.092 204.849 32.9227 205.427 33.968C206.006 35.0133 206.295 36.1987 206.295 37.524C206.295 37.7107 206.295 37.9253 206.295 38.168C206.295 38.392 206.277 38.6253 206.239 38.868H194.787V36.572H202.487C202.431 35.6573 202.105 34.9387 201.507 34.416C200.929 33.8933 200.201 33.632 199.323 33.632C198.689 33.632 198.101 33.7813 197.559 34.08C197.018 34.36 196.589 34.7987 196.271 35.396C195.973 35.9933 195.823 36.7493 195.823 37.664V38.476C195.823 39.2413 195.963 39.9133 196.243 40.492C196.542 41.052 196.953 41.4907 197.475 41.808C197.998 42.1067 198.605 42.256 199.295 42.256C199.986 42.256 200.555 42.1067 201.003 41.808C201.47 41.5093 201.815 41.1267 202.039 40.66H205.903C205.642 41.5373 205.203 42.3307 204.587 43.04C203.971 43.7493 203.215 44.3093 202.319 44.72C201.423 45.1307 200.425 45.336 199.323 45.336ZM215.663 45.336C214.375 45.336 213.218 45.0187 212.191 44.384C211.183 43.7493 210.39 42.872 209.811 41.752C209.232 40.632 208.943 39.372 208.943 37.972C208.943 36.5347 209.232 35.2653 209.811 34.164C210.408 33.044 211.22 32.1667 212.247 31.532C213.292 30.8787 214.459 30.552 215.747 30.552C216.755 30.552 217.642 30.7387 218.407 31.112C219.172 31.4853 219.788 32.0173 220.255 32.708V24.84H224.035V45H220.675L220.255 43.068C219.975 43.46 219.62 43.8333 219.191 44.188C218.78 44.5427 218.286 44.8227 217.707 45.028C217.128 45.2333 216.447 45.336 215.663 45.336ZM216.559 42.032C217.306 42.032 217.959 41.864 218.519 41.528C219.098 41.1733 219.546 40.688 219.863 40.072C220.18 39.456 220.339 38.7467 220.339 37.944C220.339 37.1413 220.18 36.432 219.863 35.816C219.546 35.2 219.098 34.724 218.519 34.388C217.959 34.0333 217.306 33.856 216.559 33.856C215.85 33.856 215.206 34.0333 214.627 34.388C214.048 34.724 213.591 35.2 213.255 35.816C212.938 36.432 212.779 37.132 212.779 37.916C212.779 38.7373 212.938 39.456 213.255 40.072C213.591 40.688 214.039 41.1733 214.599 41.528C215.178 41.864 215.831 42.032 216.559 42.032ZM242.672 45.336C241.944 45.336 241.291 45.2427 240.712 45.056C240.152 44.8693 239.648 44.6173 239.2 44.3C238.771 43.964 238.407 43.5907 238.108 43.18L237.688 45H234.328V24.84H238.108V32.848C238.556 32.1947 239.144 31.6533 239.872 31.224C240.619 30.776 241.543 30.552 242.644 30.552C243.951 30.552 245.108 30.8787 246.116 31.532C247.143 32.1667 247.946 33.044 248.524 34.164C249.122 35.2653 249.42 36.5347 249.42 37.972C249.42 39.372 249.122 40.632 248.524 41.752C247.946 42.872 247.152 43.7493 246.144 44.384C245.136 45.0187 243.979 45.336 242.672 45.336ZM241.776 42.032C242.523 42.032 243.176 41.864 243.736 41.528C244.315 41.1733 244.763 40.6973 245.08 40.1C245.398 39.484 245.556 38.7747 245.556 37.972C245.556 37.1693 245.398 36.46 245.08 35.844C244.763 35.2093 244.315 34.724 243.736 34.388C243.176 34.0333 242.523 33.856 241.776 33.856C241.048 33.856 240.395 34.0333 239.816 34.388C239.256 34.724 238.808 35.2 238.472 35.816C238.155 36.432 237.996 37.1413 237.996 37.944C237.996 38.7467 238.155 39.4653 238.472 40.1C238.808 40.716 239.256 41.192 239.816 41.528C240.395 41.864 241.048 42.032 241.776 42.032ZM253.183 51.16L256.599 43.432H255.759L250.103 30.888H254.219L258.251 39.988L261.891 30.888H265.895L257.187 51.16H253.183ZM273.955 45L280.143 35.06L273.871 25.4H278.239L282.551 32.092L286.499 25.4H290.755L284.623 35.228L290.923 45H286.555L282.215 38.196L278.239 45H273.955ZM299.457 45.336C298.039 45.336 296.779 45.0187 295.677 44.384C294.576 43.7493 293.717 42.8813 293.101 41.78C292.485 40.6787 292.177 39.4187 292.177 38C292.177 36.544 292.485 35.2653 293.101 34.164C293.717 33.044 294.576 32.1667 295.677 31.532C296.779 30.8787 298.039 30.552 299.457 30.552C301.268 30.552 302.789 31.028 304.021 31.98C305.253 32.932 306.037 34.2387 306.373 35.9H302.369C302.201 35.2467 301.847 34.7333 301.305 34.36C300.783 33.9867 300.157 33.8 299.429 33.8C298.776 33.8 298.188 33.968 297.665 34.304C297.161 34.6213 296.76 35.0973 296.461 35.732C296.181 36.348 296.041 37.0853 296.041 37.944C296.041 38.5973 296.125 39.1853 296.293 39.708C296.461 40.212 296.695 40.6507 296.993 41.024C297.292 41.3787 297.647 41.6493 298.057 41.836C298.487 42.0227 298.944 42.116 299.429 42.116C299.915 42.116 300.353 42.032 300.745 41.864C301.156 41.696 301.501 41.4627 301.781 41.164C302.061 40.8467 302.257 40.464 302.369 40.016H306.373C306.037 41.64 305.244 42.9373 303.993 43.908C302.761 44.86 301.249 45.336 299.457 45.336ZM314.393 45.336C313.217 45.336 312.246 45.1493 311.481 44.776C310.716 44.384 310.146 43.8707 309.773 43.236C309.418 42.5827 309.241 41.864 309.241 41.08C309.241 40.2213 309.456 39.4653 309.885 38.812C310.333 38.1587 310.996 37.6453 311.873 37.272C312.769 36.8987 313.889 36.712 315.233 36.712H318.733C318.733 36.0213 318.64 35.452 318.453 35.004C318.266 34.5373 317.977 34.192 317.585 33.968C317.193 33.744 316.67 33.632 316.017 33.632C315.308 33.632 314.701 33.7907 314.197 34.108C313.712 34.4067 313.413 34.8733 313.301 35.508H309.633C309.726 34.5 310.053 33.632 310.613 32.904C311.192 32.1573 311.948 31.5787 312.881 31.168C313.833 30.7573 314.888 30.552 316.045 30.552C317.37 30.552 318.518 30.776 319.489 31.224C320.46 31.672 321.206 32.316 321.729 33.156C322.252 33.996 322.513 35.032 322.513 36.264V45H319.321L318.901 42.844C318.696 43.2173 318.453 43.5533 318.173 43.852C317.893 44.1507 317.566 44.412 317.193 44.636C316.82 44.86 316.4 45.028 315.933 45.14C315.466 45.2707 314.953 45.336 314.393 45.336ZM315.289 42.424C315.774 42.424 316.204 42.34 316.577 42.172C316.969 41.9853 317.305 41.7427 317.585 41.444C317.865 41.1267 318.08 40.772 318.229 40.38C318.397 39.9693 318.509 39.5307 318.565 39.064V39.036H315.681C315.102 39.036 314.626 39.1107 314.253 39.26C313.898 39.3907 313.637 39.5867 313.469 39.848C313.301 40.1093 313.217 40.408 313.217 40.744C313.217 41.1173 313.301 41.4253 313.469 41.668C313.637 41.9107 313.88 42.0973 314.197 42.228C314.514 42.3587 314.878 42.424 315.289 42.424ZM329.409 45L324.229 30.888H328.205L331.705 41.444L335.205 30.888H339.153L334.001 45H329.409ZM345.374 45.336C344.198 45.336 343.227 45.1493 342.462 44.776C341.696 44.384 341.127 43.8707 340.754 43.236C340.399 42.5827 340.222 41.864 340.222 41.08C340.222 40.2213 340.436 39.4653 340.866 38.812C341.314 38.1587 341.976 37.6453 342.854 37.272C343.75 36.8987 344.87 36.712 346.214 36.712H349.714C349.714 36.0213 349.62 35.452 349.434 35.004C349.247 34.5373 348.958 34.192 348.566 33.968C348.174 33.744 347.651 33.632 346.998 33.632C346.288 33.632 345.682 33.7907 345.178 34.108C344.692 34.4067 344.394 34.8733 344.282 35.508H340.614C340.707 34.5 341.034 33.632 341.594 32.904C342.172 32.1573 342.928 31.5787 343.862 31.168C344.814 30.7573 345.868 30.552 347.026 30.552C348.351 30.552 349.499 30.776 350.47 31.224C351.44 31.672 352.187 32.316 352.71 33.156C353.232 33.996 353.494 35.032 353.494 36.264V45H350.302L349.882 42.844C349.676 43.2173 349.434 43.5533 349.154 43.852C348.874 44.1507 348.547 44.412 348.174 44.636C347.8 44.86 347.38 45.028 346.914 45.14C346.447 45.2707 345.934 45.336 345.374 45.336ZM346.27 42.424C346.755 42.424 347.184 42.34 347.558 42.172C347.95 41.9853 348.286 41.7427 348.566 41.444C348.846 41.1267 349.06 40.772 349.21 40.38C349.378 39.9693 349.49 39.5307 349.546 39.064V39.036H346.662C346.083 39.036 345.607 39.1107 345.234 39.26C344.879 39.3907 344.618 39.5867 344.45 39.848C344.282 40.1093 344.198 40.408 344.198 40.744C344.198 41.1173 344.282 41.4253 344.45 41.668C344.618 41.9107 344.86 42.0973 345.178 42.228C345.495 42.3587 345.859 42.424 346.27 42.424ZM363.212 45C362.222 45 361.354 44.8507 360.608 44.552C359.88 44.2347 359.31 43.7213 358.9 43.012C358.489 42.284 358.284 41.2947 358.284 40.044V34.052H355.876V30.888H358.284L358.704 27.052H362.064V30.888H365.788V34.052H362.064V40.1C362.064 40.7347 362.204 41.1733 362.484 41.416C362.764 41.6587 363.24 41.78 363.912 41.78H365.76V45H363.212ZM375.39 45.336C373.971 45.336 372.711 45.0373 371.61 44.44C370.527 43.824 369.678 42.9747 369.062 41.892C368.464 40.7907 368.166 39.5213 368.166 38.084C368.166 36.6093 368.464 35.312 369.062 34.192C369.678 33.0533 370.527 32.1667 371.61 31.532C372.692 30.8787 373.952 30.552 375.39 30.552C376.79 30.552 378.012 30.86 379.058 31.476C380.103 32.092 380.915 32.9227 381.494 33.968C382.072 35.0133 382.362 36.1987 382.362 37.524C382.362 37.7107 382.362 37.9253 382.362 38.168C382.362 38.392 382.343 38.6253 382.306 38.868H370.854V36.572H378.554C378.498 35.6573 378.171 34.9387 377.574 34.416C376.995 33.8933 376.267 33.632 375.39 33.632C374.755 33.632 374.167 33.7813 373.626 34.08C373.084 34.36 372.655 34.7987 372.338 35.396C372.039 35.9933 371.89 36.7493 371.89 37.664V38.476C371.89 39.2413 372.03 39.9133 372.31 40.492C372.608 41.052 373.019 41.4907 373.542 41.808C374.064 42.1067 374.671 42.256 375.362 42.256C376.052 42.256 376.622 42.1067 377.07 41.808C377.536 41.5093 377.882 41.1267 378.106 40.66H381.97C381.708 41.5373 381.27 42.3307 380.654 43.04C380.038 43.7493 379.282 44.3093 378.386 44.72C377.49 45.1307 376.491 45.336 375.39 45.336Z" fill="white"/>
</svg>
