<svg width="101" height="101" viewBox="0 0 101 101" fill="none" xmlns="http://www.w3.org/2000/svg">
<path d="M65.8723 5.22885C66.35 3.82203 65.5983 2.28694 64.168 1.88482C57.0588 -0.113942 49.5864 -0.532086 42.2785 0.673729C34.0845 2.02576 26.3505 5.37773 19.7614 10.4327C13.1723 15.4877 7.93152 22.0897 4.50336 29.6539C1.0752 37.2181 -0.434559 45.511 0.10781 53.7981C0.650179 62.0851 3.22794 70.1105 7.61275 77.1633C11.9976 84.2162 18.0541 90.0788 25.2458 94.2319C32.4376 98.3849 40.5426 100.7 48.8429 100.973C56.2455 101.216 63.5998 99.8273 70.3878 96.919C71.7535 96.3339 72.2987 94.714 71.6417 93.3814C70.9847 92.0488 69.3746 91.5092 68.0052 92.0856C62.0138 94.6076 55.5376 95.8095 49.0194 95.5955C41.6034 95.352 34.3619 93.2833 27.9364 89.5727C21.5109 85.8621 16.0996 80.6241 12.1819 74.3226C8.26428 68.0212 5.96116 60.8508 5.47657 53.4467C4.99199 46.0425 6.3409 38.6332 9.40382 31.8748C12.4667 25.1165 17.1491 19.2179 23.0362 14.7015C28.9233 10.185 35.8334 7.19018 43.1544 5.9822C49.5892 4.92045 56.1667 5.26793 62.4357 6.98758C63.8685 7.38061 65.3946 6.63567 65.8723 5.22885Z" fill="#70C9F2"/>
<path d="M97.0526 61.3921C98.4993 61.7306 99.9539 60.833 100.215 59.3704C101.648 51.3369 101.113 43.0744 98.6559 35.2928C98.2085 33.876 96.6503 33.1736 95.2594 33.6958C93.8685 34.218 93.1725 35.767 93.6109 37.1866C95.7051 43.9677 96.17 51.1484 94.9677 58.143C94.716 59.6073 95.606 61.0536 97.0526 61.3921Z" fill="#70C9F2"/>
<path d="M92.3792 27.4367C93.6806 26.72 94.1607 25.0795 93.3757 23.8181C89.0642 16.8897 83.1369 11.1086 76.103 6.97139C74.8223 6.21816 73.1944 6.73907 72.5104 8.05798C71.8264 9.37688 72.346 10.9937 73.6218 11.755C79.7163 15.3919 84.8676 20.4162 88.6556 26.4179C89.4485 27.6743 91.0778 28.1534 92.3792 27.4367Z" fill="#70C9F2"/>
<path d="M77.7737 89.7674C78.6212 90.9877 80.3025 91.2954 81.4759 90.3841C87.9209 85.3787 93.0576 78.8849 96.4446 71.4606C97.0612 70.1089 96.3746 68.5436 94.992 67.9998C93.6094 67.456 92.0551 68.1401 91.4299 69.4879C88.4432 75.926 83.9791 81.5696 78.4016 85.9584C77.234 86.8771 76.9261 88.5472 77.7737 89.7674Z" fill="#70C9F2"/>
<path d="M52.7444 32.543C52.7444 31.3034 51.7396 30.2985 50.5 30.2985C49.2604 30.2985 48.2556 31.3034 48.2556 32.543H50.5H52.7444ZM48.9129 70.6023C49.7894 71.4788 51.2106 71.4788 52.0871 70.6023L66.3706 56.3187C67.2471 55.4422 67.2471 54.0211 66.3706 53.1446C65.4941 52.2681 64.073 52.2681 63.1965 53.1446L50.5 65.8411L37.8035 53.1446C36.927 52.2681 35.5059 52.2681 34.6294 53.1446C33.7529 54.0211 33.7529 55.4422 34.6294 56.3187L48.9129 70.6023ZM50.5 32.543H48.2556V69.0152H50.5H52.7444V32.543H50.5Z" fill="#70C9F2"/>
</svg>
